<svg width="1044" height="149" viewBox="0 0 1044 149" fill="none" xmlns="http://www.w3.org/2000/svg">
<path d="M581.168 92.9688L609.195 101.855C604.898 117.48 597.737 129.102 587.711 136.719C577.75 144.271 565.087 148.047 549.723 148.047C530.712 148.047 515.087 141.569 502.848 128.613C490.608 115.592 484.488 97.819 484.488 75.293C484.488 51.4648 490.641 32.9753 502.945 19.8242C515.25 6.60807 531.428 0 551.48 0C568.993 0 583.219 5.17578 594.156 15.5273C600.667 21.6471 605.549 30.4362 608.805 41.8945L580.191 48.7305C578.499 41.3086 574.951 35.4492 569.547 31.1523C564.208 26.8555 557.698 24.707 550.016 24.707C539.404 24.707 530.777 28.5156 524.137 36.1328C517.561 43.75 514.273 56.0872 514.273 73.1445C514.273 91.2435 517.529 104.134 524.039 111.816C530.549 119.499 539.013 123.34 549.43 123.34C557.112 123.34 563.72 120.898 569.254 116.016C574.788 111.133 578.759 103.451 581.168 92.9688Z" fill="#55C770"/>
<path d="M628.238 74.9023C628.238 60.319 630.419 48.0794 634.781 38.1836C638.036 30.8919 642.464 24.349 648.062 18.5547C653.727 12.7604 659.911 8.46354 666.617 5.66406C675.536 1.88802 685.823 0 697.477 0C718.57 0 735.432 6.54297 748.062 19.6289C760.758 32.7148 767.105 50.9115 767.105 74.2188C767.105 97.3307 760.823 115.43 748.258 128.516C735.693 141.536 718.896 148.047 697.867 148.047C676.578 148.047 659.651 141.569 647.086 128.613C634.521 115.592 628.238 97.6888 628.238 74.9023ZM658.023 73.9258C658.023 90.1367 661.767 102.441 669.254 110.84C676.741 119.173 686.246 123.34 697.77 123.34C709.293 123.34 718.733 119.206 726.09 110.938C733.512 102.604 737.223 90.1367 737.223 73.5352C737.223 57.1289 733.609 44.8893 726.383 36.8164C719.221 28.7435 709.684 24.707 697.77 24.707C685.855 24.707 676.253 28.8086 668.961 37.0117C661.669 45.1497 658.023 57.4544 658.023 73.9258Z" fill="#55C770"/>
<path d="M789.664 2.44141H842.496C854.41 2.44141 863.492 3.35286 869.742 5.17578C878.141 7.64974 885.335 12.0443 891.324 18.3594C897.314 24.6745 901.871 32.4219 904.996 41.6016C908.121 50.7161 909.684 61.9792 909.684 75.3906C909.684 87.1745 908.219 97.3307 905.289 105.859C901.708 116.276 896.598 124.707 889.957 131.152C884.944 136.035 878.173 139.844 869.645 142.578C863.264 144.596 854.736 145.605 844.059 145.605H789.664V2.44141ZM818.57 26.6602V121.484H840.152C848.225 121.484 854.052 121.029 857.633 120.117C862.32 118.945 866.194 116.96 869.254 114.16C872.379 111.361 874.918 106.771 876.871 100.391C878.824 93.9453 879.801 85.1888 879.801 74.1211C879.801 63.0534 878.824 54.5573 876.871 48.6328C874.918 42.7083 872.184 38.0859 868.668 34.7656C865.152 31.4453 860.693 29.1992 855.289 28.0273C851.253 27.1159 843.342 26.6602 831.559 26.6602H818.57Z" fill="#55C770"/>
<path d="M934.293 145.605V2.44141H1040.45V26.6602H963.199V58.3984H1035.07V82.5195H963.199V121.484H1043.18V145.605H934.293Z" fill="#55C770"/>
<path d="M0 145.605V2.44141H46.3867C63.9648 2.44141 75.4232 3.15755 80.7617 4.58984C88.9648 6.73828 95.8333 11.4258 101.367 18.6523C106.901 25.8138 109.668 35.0911 109.668 46.4844C109.668 55.2734 108.073 62.6628 104.883 68.6523C101.693 74.6419 97.6237 79.362 92.6758 82.8125C87.793 86.1979 82.8125 88.444 77.7344 89.5508C70.8333 90.918 60.8398 91.6016 47.7539 91.6016H28.9062V145.605H0ZM28.9062 26.6602V67.2852H44.7266C56.1198 67.2852 63.737 66.5365 67.5781 65.0391C71.4193 63.5417 74.4141 61.1979 76.5625 58.0078C78.776 54.8177 79.8828 51.1068 79.8828 46.875C79.8828 41.6667 78.3529 37.3698 75.293 33.9844C72.2331 30.599 68.3594 28.4831 63.6719 27.6367C60.2214 26.9857 53.2878 26.6602 42.8711 26.6602H28.9062Z" fill="white"/>
<path d="M133.496 145.605V2.44141H194.336C209.635 2.44141 220.736 3.74349 227.637 6.34766C234.603 8.88672 240.169 13.444 244.336 20.0195C248.503 26.5951 250.586 34.1146 250.586 42.5781C250.586 53.3203 247.428 62.207 241.113 69.2383C234.798 76.2044 225.358 80.599 212.793 82.4219C219.043 86.0677 224.186 90.0716 228.223 94.4336C232.324 98.7956 237.826 106.543 244.727 117.676L262.207 145.605H227.637L206.738 114.453C199.316 103.32 194.238 96.3216 191.504 93.457C188.77 90.5273 185.872 88.5417 182.812 87.5C179.753 86.3932 174.902 85.8398 168.262 85.8398H162.402V145.605H133.496ZM162.402 62.9883H183.789C197.656 62.9883 206.315 62.4023 209.766 61.2305C213.216 60.0586 215.918 58.0404 217.871 55.1758C219.824 52.3112 220.801 48.7305 220.801 44.4336C220.801 39.6159 219.499 35.7422 216.895 32.8125C214.355 29.8177 210.742 27.9297 206.055 27.1484C203.711 26.8229 196.68 26.6602 184.961 26.6602H162.402V62.9883Z" fill="white"/>
<path d="M272.07 74.9023C272.07 60.319 274.251 48.0794 278.613 38.1836C281.868 30.8919 286.296 24.349 291.895 18.5547C297.559 12.7604 303.743 8.46354 310.449 5.66406C319.368 1.88802 329.655 0 341.309 0C362.402 0 379.264 6.54297 391.895 19.6289C404.59 32.7148 410.938 50.9115 410.938 74.2188C410.938 97.3307 404.655 115.43 392.09 128.516C379.525 141.536 362.728 148.047 341.699 148.047C320.41 148.047 303.483 141.569 290.918 128.613C278.353 115.592 272.07 97.6888 272.07 74.9023ZM301.855 73.9258C301.855 90.1367 305.599 102.441 313.086 110.84C320.573 119.173 330.078 123.34 341.602 123.34C353.125 123.34 362.565 119.206 369.922 110.938C377.344 102.604 381.055 90.1367 381.055 73.5352C381.055 57.1289 377.441 44.8893 370.215 36.8164C363.053 28.7435 353.516 24.707 341.602 24.707C329.688 24.707 320.085 28.8086 312.793 37.0117C305.501 45.1497 301.855 57.4544 301.855 73.9258Z" fill="white"/>
</svg>
