<svg width="133" height="19" viewBox="0 0 133 19" fill="none" xmlns="http://www.w3.org/2000/svg">
<path d="M7.52963 1.2C9.01763 1.2 10.3056 1.448 11.3936 1.944C12.4976 2.44 13.3456 3.144 13.9376 4.056C14.5296 4.968 14.8256 6.048 14.8256 7.296C14.8256 8.528 14.5296 9.608 13.9376 10.536C13.3456 11.448 12.4976 12.152 11.3936 12.648C10.3056 13.128 9.01763 13.368 7.52963 13.368H4.14563V18H0.257625V1.2H7.52963ZM7.31363 10.2C8.48163 10.2 9.36963 9.952 9.97763 9.456C10.5856 8.944 10.8896 8.224 10.8896 7.296C10.8896 6.352 10.5856 5.632 9.97763 5.136C9.36963 4.624 8.48163 4.368 7.31363 4.368H4.14563V10.2H7.31363ZM28.3054 18L25.0654 13.32H24.8734H21.4894V18H17.6014V1.2H24.8734C26.3614 1.2 27.6494 1.448 28.7374 1.944C29.8414 2.44 30.6894 3.144 31.2814 4.056C31.8734 4.968 32.1694 6.048 32.1694 7.296C32.1694 8.544 31.8654 9.624 31.2574 10.536C30.6654 11.432 29.8174 12.12 28.7134 12.6L32.4814 18H28.3054ZM28.2334 7.296C28.2334 6.352 27.9294 5.632 27.3214 5.136C26.7134 4.624 25.8254 4.368 24.6574 4.368H21.4894V10.224H24.6574C25.8254 10.224 26.7134 9.968 27.3214 9.456C27.9294 8.944 28.2334 8.224 28.2334 7.296ZM43.3858 18.288C41.6418 18.288 40.0658 17.912 38.6578 17.16C37.2658 16.408 36.1698 15.376 35.3698 14.064C34.5858 12.736 34.1938 11.248 34.1938 9.6C34.1938 7.952 34.5858 6.472 35.3698 5.16C36.1698 3.832 37.2658 2.792 38.6578 2.04C40.0658 1.288 41.6418 0.912 43.3858 0.912C45.1298 0.912 46.6978 1.288 48.0898 2.04C49.4818 2.792 50.5778 3.832 51.3778 5.16C52.1778 6.472 52.5778 7.952 52.5778 9.6C52.5778 11.248 52.1778 12.736 51.3778 14.064C50.5778 15.376 49.4818 16.408 48.0898 17.16C46.6978 17.912 45.1298 18.288 43.3858 18.288ZM43.3858 14.976C44.3778 14.976 45.2738 14.752 46.0738 14.304C46.8738 13.84 47.4978 13.2 47.9458 12.384C48.4098 11.568 48.6418 10.64 48.6418 9.6C48.6418 8.56 48.4098 7.632 47.9458 6.816C47.4978 6 46.8738 5.368 46.0738 4.92C45.2738 4.456 44.3778 4.224 43.3858 4.224C42.3938 4.224 41.4978 4.456 40.6978 4.92C39.8978 5.368 39.2658 6 38.8018 6.816C38.3538 7.632 38.1298 8.56 38.1298 9.6C38.1298 10.64 38.3538 11.568 38.8018 12.384C39.2658 13.2 39.8978 13.84 40.6978 14.304C41.4978 14.752 42.3938 14.976 43.3858 14.976Z" fill="white"/>
<path d="M70.3367 18.288C68.6247 18.288 67.0727 17.92 65.6807 17.184C64.3047 16.432 63.2167 15.4 62.4167 14.088C61.6327 12.76 61.2407 11.264 61.2407 9.6C61.2407 7.936 61.6327 6.448 62.4167 5.136C63.2167 3.808 64.3047 2.776 65.6807 2.04C67.0727 1.288 68.6327 0.912 70.3607 0.912C71.8167 0.912 73.1287 1.168 74.2967 1.68C75.4807 2.192 76.4727 2.928 77.2727 3.888L74.7767 6.192C73.6407 4.88 72.2327 4.224 70.5527 4.224C69.5127 4.224 68.5847 4.456 67.7687 4.92C66.9527 5.368 66.3127 6 65.8487 6.816C65.4007 7.632 65.1767 8.56 65.1767 9.6C65.1767 10.64 65.4007 11.568 65.8487 12.384C66.3127 13.2 66.9527 13.84 67.7687 14.304C68.5847 14.752 69.5127 14.976 70.5527 14.976C72.2327 14.976 73.6407 14.312 74.7767 12.984L77.2727 15.288C76.4727 16.264 75.4807 17.008 74.2967 17.52C73.1127 18.032 71.7927 18.288 70.3367 18.288ZM87.6827 18.288C85.9387 18.288 84.3627 17.912 82.9547 17.16C81.5627 16.408 80.4667 15.376 79.6667 14.064C78.8827 12.736 78.4907 11.248 78.4907 9.6C78.4907 7.952 78.8827 6.472 79.6667 5.16C80.4667 3.832 81.5627 2.792 82.9547 2.04C84.3627 1.288 85.9387 0.912 87.6827 0.912C89.4267 0.912 90.9947 1.288 92.3867 2.04C93.7787 2.792 94.8747 3.832 95.6747 5.16C96.4747 6.472 96.8747 7.952 96.8747 9.6C96.8747 11.248 96.4747 12.736 95.6747 14.064C94.8747 15.376 93.7787 16.408 92.3867 17.16C90.9947 17.912 89.4267 18.288 87.6827 18.288ZM87.6827 14.976C88.6747 14.976 89.5707 14.752 90.3707 14.304C91.1707 13.84 91.7947 13.2 92.2427 12.384C92.7067 11.568 92.9387 10.64 92.9387 9.6C92.9387 8.56 92.7067 7.632 92.2427 6.816C91.7947 6 91.1707 5.368 90.3707 4.92C89.5707 4.456 88.6747 4.224 87.6827 4.224C86.6907 4.224 85.7947 4.456 84.9947 4.92C84.1947 5.368 83.5627 6 83.0987 6.816C82.6507 7.632 82.4267 8.56 82.4267 9.6C82.4267 10.64 82.6507 11.568 83.0987 12.384C83.5627 13.2 84.1947 13.84 84.9947 14.304C85.7947 14.752 86.6907 14.976 87.6827 14.976ZM99.7967 1.2H107.429C109.253 1.2 110.861 1.552 112.253 2.256C113.661 2.944 114.749 3.92 115.517 5.184C116.301 6.448 116.693 7.92 116.693 9.6C116.693 11.28 116.301 12.752 115.517 14.016C114.749 15.28 113.661 16.264 112.253 16.968C110.861 17.656 109.253 18 107.429 18H99.7967V1.2ZM107.237 14.808C108.917 14.808 110.253 14.344 111.245 13.416C112.253 12.472 112.757 11.2 112.757 9.6C112.757 8 112.253 6.736 111.245 5.808C110.253 4.864 108.917 4.392 107.237 4.392H103.685V14.808H107.237ZM132.633 14.88V18H119.625V1.2H132.321V4.32H123.489V7.968H131.289V10.992H123.489V14.88H132.633Z" fill="#45FE84"/>
</svg>
